<mxfile host="65bd71144e">
    <diagram id="YfLQU_7pIsObFUvdrNqj" name="Page-1">
        <mxGraphModel dx="899" dy="790" grid="1" gridSize="10" guides="1" tooltips="1" connect="1" arrows="1" fold="1" page="1" pageScale="1" pageWidth="827" pageHeight="1169" math="0" shadow="0">
            <root>
                <mxCell id="0"/>
                <mxCell id="1" parent="0"/>
                <mxCell id="68" value="Moving State Machine" style="swimlane;fontSize=20;fillColor=#0050ef;fontColor=#ffffff;strokeColor=#0050ef;strokeWidth=7;" parent="1" vertex="1">
                    <mxGeometry x="50" y="570" width="260" height="220" as="geometry"/>
                </mxCell>
                <mxCell id="70" value="Stand" style="rounded=1;whiteSpace=wrap;html=1;fontSize=24;fillColor=#1ba1e2;fontColor=#ffffff;strokeColor=#006EAF;" parent="68" vertex="1">
                    <mxGeometry x="70" y="45" width="120" height="60" as="geometry"/>
                </mxCell>
                <mxCell id="71" style="edgeStyle=none;html=1;exitX=0.25;exitY=0;exitDx=0;exitDy=0;entryX=0.25;entryY=1;entryDx=0;entryDy=0;fillColor=#60a917;strokeColor=#2D7600;strokeWidth=7;" parent="68" source="72" target="70" edge="1">
                    <mxGeometry relative="1" as="geometry"/>
                </mxCell>
                <mxCell id="72" value="Moving" style="rounded=1;whiteSpace=wrap;html=1;fontSize=24;fillColor=#1ba1e2;fontColor=#ffffff;strokeColor=#006EAF;" parent="68" vertex="1">
                    <mxGeometry x="70" y="145" width="120" height="60" as="geometry"/>
                </mxCell>
                <mxCell id="69" style="edgeStyle=none;html=1;exitX=0.75;exitY=1;exitDx=0;exitDy=0;entryX=0.75;entryY=0;entryDx=0;entryDy=0;fillColor=#60a917;strokeColor=#2D7600;strokeWidth=7;" parent="68" source="70" target="72" edge="1">
                    <mxGeometry relative="1" as="geometry"/>
                </mxCell>
                <mxCell id="91" value="Locomotion State Machine" style="swimlane;fontSize=20;fillColor=#0050ef;fontColor=#ffffff;strokeColor=#0050ef;strokeWidth=7;" parent="1" vertex="1">
                    <mxGeometry x="50" y="300" width="860" height="250" as="geometry"/>
                </mxCell>
                <mxCell id="94" value="Moving" style="rounded=1;whiteSpace=wrap;html=1;fontSize=24;fillColor=#60a917;fontColor=#ffffff;strokeColor=#2D7600;" parent="91" vertex="1">
                    <mxGeometry x="349" y="44" width="110" height="40" as="geometry"/>
                </mxCell>
                <mxCell id="120" value="Moving" style="rounded=1;whiteSpace=wrap;html=1;fontSize=24;fillColor=#60a917;fontColor=#ffffff;strokeColor=#2D7600;" parent="91" vertex="1">
                    <mxGeometry x="120" y="134" width="110" height="40" as="geometry"/>
                </mxCell>
                <mxCell id="121" value="Detail" style="rounded=1;whiteSpace=wrap;html=1;fontSize=24;fillColor=#60a917;fontColor=#ffffff;strokeColor=#2D7600;" parent="91" vertex="1">
                    <mxGeometry x="120" y="194" width="110" height="40" as="geometry"/>
                </mxCell>
                <mxCell id="122" value="ApplyAdditive" style="rounded=1;whiteSpace=wrap;html=1;fontSize=24;fillColor=#008a00;fontColor=#ffffff;strokeColor=#005700;" parent="91" vertex="1">
                    <mxGeometry x="290" y="144" width="170" height="70" as="geometry"/>
                </mxCell>
                <mxCell id="123" style="edgeStyle=none;html=1;exitX=1;exitY=0.5;exitDx=0;exitDy=0;fillColor=#f5f5f5;strokeColor=#666666;strokeWidth=7;entryX=0;entryY=0.25;entryDx=0;entryDy=0;" parent="91" source="120" target="122" edge="1">
                    <mxGeometry relative="1" as="geometry">
                        <mxPoint x="220" y="-196" as="sourcePoint"/>
                        <mxPoint x="550" y="-196" as="targetPoint"/>
                    </mxGeometry>
                </mxCell>
                <mxCell id="124" style="edgeStyle=none;html=1;exitX=1;exitY=0.5;exitDx=0;exitDy=0;fillColor=#f5f5f5;strokeColor=#666666;strokeWidth=7;entryX=0;entryY=0.75;entryDx=0;entryDy=0;" parent="91" source="121" target="122" edge="1">
                    <mxGeometry relative="1" as="geometry">
                        <mxPoint x="240" y="174" as="sourcePoint"/>
                        <mxPoint x="300" y="171.5" as="targetPoint"/>
                    </mxGeometry>
                </mxCell>
                <mxCell id="125" value="Not Moving" style="rounded=1;whiteSpace=wrap;html=1;fontSize=24;fillColor=#1ba1e2;fontColor=#ffffff;strokeColor=#006EAF;" parent="91" vertex="1">
                    <mxGeometry x="500" y="37" width="140" height="60" as="geometry"/>
                </mxCell>
                <mxCell id="126" value="Moving" style="rounded=1;whiteSpace=wrap;html=1;fontSize=24;fillColor=#1ba1e2;fontColor=#ffffff;strokeColor=#006EAF;" parent="91" vertex="1">
                    <mxGeometry x="500" y="149" width="140" height="60" as="geometry"/>
                </mxCell>
                <mxCell id="127" style="edgeStyle=none;html=1;exitX=0.75;exitY=1;exitDx=0;exitDy=0;entryX=0.75;entryY=0;entryDx=0;entryDy=0;fillColor=#60a917;strokeColor=#2D7600;strokeWidth=7;" parent="91" target="126" edge="1">
                    <mxGeometry relative="1" as="geometry">
                        <mxPoint x="605" y="94" as="sourcePoint"/>
                        <mxPoint x="110" y="439" as="targetPoint"/>
                    </mxGeometry>
                </mxCell>
                <mxCell id="128" style="edgeStyle=none;html=1;exitX=0.25;exitY=0;exitDx=0;exitDy=0;entryX=0.25;entryY=1;entryDx=0;entryDy=0;fillColor=#60a917;strokeColor=#2D7600;strokeWidth=7;" parent="91" source="126" edge="1">
                    <mxGeometry relative="1" as="geometry">
                        <mxPoint x="615" y="114" as="sourcePoint"/>
                        <mxPoint x="535" y="94" as="targetPoint"/>
                    </mxGeometry>
                </mxCell>
                <mxCell id="130" value="" style="shape=curlyBracket;whiteSpace=wrap;html=1;rounded=1;rotation=-180;strokeWidth=2;gradientColor=#ffffff;" parent="91" vertex="1">
                    <mxGeometry x="470" y="44" width="20" height="50" as="geometry"/>
                </mxCell>
                <mxCell id="131" value="" style="shape=curlyBracket;whiteSpace=wrap;html=1;rounded=1;rotation=-180;strokeWidth=2;gradientColor=#ffffff;" parent="91" vertex="1">
                    <mxGeometry x="470" y="144" width="20" height="80" as="geometry"/>
                </mxCell>
                <mxCell id="106" value="Detail State Machine(Additive)" style="swimlane;fontSize=20;fillColor=#0050ef;fontColor=#ffffff;strokeColor=#0050ef;strokeWidth=7;" parent="1" vertex="1">
                    <mxGeometry x="340" y="570" width="570" height="220" as="geometry"/>
                </mxCell>
                <mxCell id="107" value="Walk" style="rounded=1;whiteSpace=wrap;html=1;fontSize=24;fillColor=#1ba1e2;fontColor=#ffffff;strokeColor=#006EAF;" parent="106" vertex="1">
                    <mxGeometry x="160" y="40" width="120" height="60" as="geometry"/>
                </mxCell>
                <mxCell id="108" style="edgeStyle=none;html=1;exitX=0.25;exitY=0;exitDx=0;exitDy=0;entryX=0;entryY=0.5;entryDx=0;entryDy=0;fillColor=#60a917;strokeColor=#2D7600;strokeWidth=7;" parent="106" source="109" target="107" edge="1">
                    <mxGeometry relative="1" as="geometry"/>
                </mxCell>
                <mxCell id="109" value="Run Start" style="rounded=1;whiteSpace=wrap;html=1;fontSize=24;fillColor=#1ba1e2;fontColor=#ffffff;strokeColor=#006EAF;" parent="106" vertex="1">
                    <mxGeometry x="70" y="145" width="120" height="60" as="geometry"/>
                </mxCell>
                <mxCell id="110" style="edgeStyle=none;html=1;exitX=0.25;exitY=1;exitDx=0;exitDy=0;entryX=0.75;entryY=0;entryDx=0;entryDy=0;fillColor=#60a917;strokeColor=#2D7600;strokeWidth=7;" parent="106" source="107" target="109" edge="1">
                    <mxGeometry relative="1" as="geometry"/>
                </mxCell>
                <mxCell id="111" value="Runing" style="rounded=1;whiteSpace=wrap;html=1;fontSize=24;fillColor=#1ba1e2;fontColor=#ffffff;strokeColor=#006EAF;" parent="106" vertex="1">
                    <mxGeometry x="240" y="145" width="120" height="60" as="geometry"/>
                </mxCell>
                <mxCell id="112" value="Pivot" style="rounded=1;whiteSpace=wrap;html=1;fontSize=24;fillColor=#1ba1e2;fontColor=#ffffff;strokeColor=#006EAF;" parent="106" vertex="1">
                    <mxGeometry x="410" y="145" width="120" height="60" as="geometry"/>
                </mxCell>
                <mxCell id="113" style="edgeStyle=none;html=1;exitX=0.75;exitY=1;exitDx=0;exitDy=0;entryX=0.25;entryY=0;entryDx=0;entryDy=0;fillColor=#60a917;strokeColor=#2D7600;strokeWidth=7;" parent="106" source="107" target="111" edge="1">
                    <mxGeometry relative="1" as="geometry">
                        <mxPoint x="210" y="120" as="sourcePoint"/>
                        <mxPoint x="170" y="155" as="targetPoint"/>
                    </mxGeometry>
                </mxCell>
                <mxCell id="114" style="edgeStyle=none;html=1;exitX=0.75;exitY=0;exitDx=0;exitDy=0;entryX=1;entryY=0.5;entryDx=0;entryDy=0;fillColor=#60a917;strokeColor=#2D7600;strokeWidth=7;" parent="106" source="111" target="107" edge="1">
                    <mxGeometry relative="1" as="geometry">
                        <mxPoint x="270" y="120" as="sourcePoint"/>
                        <mxPoint x="280" y="155" as="targetPoint"/>
                    </mxGeometry>
                </mxCell>
                <mxCell id="115" style="edgeStyle=none;html=1;exitX=1;exitY=0.5;exitDx=0;exitDy=0;entryX=0;entryY=0.5;entryDx=0;entryDy=0;fillColor=#60a917;strokeColor=#2D7600;strokeWidth=7;" parent="106" source="109" target="111" edge="1">
                    <mxGeometry relative="1" as="geometry">
                        <mxPoint x="200" y="120" as="sourcePoint"/>
                        <mxPoint x="170" y="155" as="targetPoint"/>
                    </mxGeometry>
                </mxCell>
                <mxCell id="116" style="edgeStyle=none;html=1;exitX=1;exitY=0.25;exitDx=0;exitDy=0;entryX=0;entryY=0.25;entryDx=0;entryDy=0;fillColor=#60a917;strokeColor=#2D7600;strokeWidth=7;" parent="106" source="111" target="112" edge="1">
                    <mxGeometry relative="1" as="geometry">
                        <mxPoint x="340" y="155" as="sourcePoint"/>
                        <mxPoint x="290" y="90" as="targetPoint"/>
                    </mxGeometry>
                </mxCell>
                <mxCell id="117" style="edgeStyle=none;html=1;exitX=0;exitY=0.75;exitDx=0;exitDy=0;entryX=1;entryY=0.75;entryDx=0;entryDy=0;fillColor=#60a917;strokeColor=#2D7600;strokeWidth=7;" parent="106" source="112" target="111" edge="1">
                    <mxGeometry relative="1" as="geometry">
                        <mxPoint x="370" y="170" as="sourcePoint"/>
                        <mxPoint x="420" y="170" as="targetPoint"/>
                    </mxGeometry>
                </mxCell>
            </root>
        </mxGraphModel>
    </diagram>
</mxfile>